<svg xmlns="http://www.w3.org/2000/svg" width="220" height="320" viewBox="0 0 220 320">
  <defs><linearGradient id="g" x1="0" y1="0" x2="1" y2="1"><stop stop-color="#1f1116"/><stop offset="1" stop-color="#762322"/></linearGradient></defs>
  <rect width="220" height="320" rx="12" fill="url(#g)"/>
  <circle cx="110" cy="95" r="54" fill="#ff744b" opacity=".43"/>
  <path d="M0 206 42 158l42 30 39-68 49 70 48-37v167H0z" fill="#0a1019" opacity=".69"/>
  <path d="M110 122c22 0 37 19 37 41 0 16-9 31-21 39l22 67H72l22-67c-12-8-21-23-21-39 0-22 15-41 37-41z" fill="#060a10"/>
  <rect y="218" width="220" height="102" fill="#05080d" opacity=".7"/>
  <text x="110" y="270" text-anchor="middle" fill="#fff" font-size="18" font-family="Georgia,serif" font-weight="700">THIÊN MA</text>
  <path d="M55 289h110" stroke="#ff744b" stroke-width="3" stroke-linecap="round"/>
</svg>