<svg xmlns="http://www.w3.org/2000/svg" width="320" height="460" viewBox="0 0 320 460">
  <defs>
    <linearGradient id="bg" x1="0" y1="0" x2="1" y2="1">
      <stop stop-color="#253957"/><stop offset="1" stop-color="#b56d4d"/>
    </linearGradient>
    <linearGradient id="fade" x1="0" y1="0" x2="0" y2="1">
      <stop offset="0" stop-color="#000" stop-opacity="0"/>
      <stop offset="1" stop-color="#000" stop-opacity=".78"/>
    </linearGradient>
  </defs>
  <rect width="320" height="460" rx="16" fill="url(#bg)"/>
  <circle cx="160" cy="112" r="68" fill="#f2c05f" opacity=".72"/><circle cx="185" cy="92" r="66" fill="#b56d4d"/>
  <path d="M0 274 57 219l55 46 56-82 69 84 83-52v245H0z" fill="#101827" opacity=".65"/>
  <path d="M0 335 63 286l62 45 62-37 55 49 78-57v174H0z" fill="#070b12" opacity=".84"/>
  <circle cx="160" cy="248" r="34" fill="#111724"/>
  <path d="M160 214c21 0 34 18 34 38 0 16-8 31-19 40l19 93h-68l19-93c-11-9-19-24-19-40 0-20 13-38 34-38z" fill="#080c13"/>
  <rect y="290" width="320" height="170" fill="url(#fade)"/>
  <text x="160" y="378" text-anchor="middle" fill="#fff" font-size="25" font-family="Georgia, serif" font-weight="700">ĐẠI ĐẠO</text>
  <text x="160" y="410" text-anchor="middle" fill="#fff" font-size="25" font-family="Georgia, serif" font-weight="700">CHÍ TÔN</text>
  <path d="M96 430h128" stroke="#f2c05f" stroke-width="3" stroke-linecap="round" opacity=".72"/>
</svg>